#!OML:ASF H:\Dans Jumps\Project 1\Capture day 1\Session 1\subject.ASF
:FULLY-SPECIFIED
:DEGREES
168
root 0.595897 17.5931 -13.7662 6.7587 -0.492683 -1.17801
lowerback -3.17723 -0.707573 -0.392297
upperback 1.45506 -0.982753 1.80077
thorax 3.31723 -0.518803 2.01499
lowerneck -13.6443 0.470556 -1.85014
upperneck 14.0846 1.02102 -0.002379
head 6.52394 0.392175 0.398907
rclavicle 8.54774e-015 -7.55382e-015
rhumerus -27.3716 -18.7551 -77.9512
rradius 22.7345
rwrist 34.5033
rhand -19.3497 -26.901
rfingers 7.12502
rthumb 6.96756 -56.7663
lclavicle 8.54774e-015 -7.55382e-015
lhumerus -22.9883 5.6802 86.1017
lradius 14.5889
lwrist -1.06072
lhand -25.6316 -4.63266
lfingers 7.12502
lthumb 0.901579 25.3452
rfemur -11.5078 -3.32981 20.2325
rtibia 20.0717
rfoot -14.2781 -3.90253
rtoes 13.7208
lfemur -10.4111 8.7591 -19.6918
ltibia 17.1113
lfoot -11.7515 3.50449
ltoes 2.75606
169
root 0.596499 17.593 -13.7662 6.7517 -0.502995 -1.17882
lowerback -3.18156 -0.702511 -0.383138
upperback 1.46123 -0.976388 1.79649
thorax 3.32555 -0.51546 2.00574
lowerneck -13.6432 0.469326 -1.84995
upperneck 14.094 1.0188 0.000964025
head 6.52678 0.391325 0.399769
rclavicle 7.8023e-015 7.15625e-015
rhumerus -27.3694 -18.7603 -77.9541
rradius 22.7298
rwrist 34.5119
rhand -19.3532 -26.8986
rfingers 7.12502
rthumb 6.96423 -56.764
lclavicle 7.8023e-015 7.15625e-015
lhumerus -22.9869 5.70637 86.0876
lradius 14.5795
lwrist -1.08565
lhand -25.6413 -4.62362
lfingers 7.12502
lthumb 0.89216 25.3543
rfemur -11.5012 -3.32141 20.2304
rtibia 20.0711
rfoot -14.2741 -3.90311
rtoes 13.7076
lfemur -10.4036 8.76379 -19.6924
ltibia 17.1153
lfoot -11.7544 3.50846
ltoes 2.76765
170
root 0.597057 17.5928 -13.7662 6.74547 -0.512716 -1.17901
lowerback -3.18516 -0.69834 -0.376038
upperback 1.46672 -0.971132 1.79301
thorax 3.33286 -0.512714 1.99843
lowerneck -13.6419 0.4685 -1.85021
upperneck 14.1063 1.0175 0.00282347
head 6.53051 0.390736 0.400326
rclavicle -4.37326e-015 2.78299e-015
rhumerus -27.3665 -18.7592 -77.9584
rradius 22.7266
rwrist 34.5146
rhand -19.3529 -26.8986
rfingers 7.12502
rthumb 6.96448 -56.7641
lclavicle -4.37326e-015 2.78299e-015
lhumerus -22.9847 5.73334 86.0742
lradius 14.5671
lwrist -1.1103
lhand -25.649 -4.6175
lfingers 7.12502
lthumb 0.884708 25.3604
rfemur -11.4967 -3.31391 20.2282
rtibia 20.0726
rfoot -14.2714 -3.90436
rtoes 13.6997
lfemur -10.3971 8.76704 -19.6936
ltibia 17.1182
lfoot -11.7558 3.5134
ltoes 2.77792
171
root 0.597654 17.5927 -13.7664 6.73756 -0.521281 -1.17893
lowerback -3.18646 -0.69514 -0.368848
upperback 1.47245 -0.967181 1.79001
thorax 3.33917 -0.510617 1.9915
lowerneck -13.6385 0.468117 -1.85119
upperneck 14.1195 1.01724 0.00269697
head 6.53415 0.390437 0.400456
rclavicle -9.0944e-015 7.15625e-015
rhumerus -27.362 -18.7558 -77.9626
rradius 22.7226
rwrist 34.5161
rhand -19.353 -26.8926
rfingers 7.12502
rthumb 6.96438 -56.758
lclavicle -9.0944e-015 7.15625e-015
lhumerus -22.9835 5.75862 86.0625
lradius 14.5562
lwrist -1.13176
lhand -25.6567 -4.61633
lfingers 7.12502
lthumb 0.877307 25.3616
rfemur -11.4915 -3.30923 20.2258
rtibia 20.076
rfoot -14.2708 -3.90476
rtoes 13.6893
lfemur -10.3891 8.7691 -19.6949
ltibia 17.1206
lfoot -11.7572 3.5189
ltoes 2.78704
172
root 0.598276 17.5925 -13.7666 6.72928 -0.528396 -1.17734
lowerback -3.18518 -0.693895 -0.363845
upperback 1.47719 -0.965743 1.78802
thorax 3.34318 -0.509816 1.98672
lowerneck -13.6333 0.468961 -1.85248
upperneck 14.1348 1.01916 -0.000355714
head 6.53816 0.390912 0.399908
rclavicle 5.46658e-015 1.35174e-014
rhumerus -27.3571 -18.7482 -77.966
rradius 22.7186
rwrist 34.5162
rhand -19.3474 -26.8839
rfingers 7.12502
rthumb 6.96982 -56.7491
lclavicle 5.46658e-015 1.35174e-014
lhumerus -22.9838 5.79492 86.0497
lradius 14.5431
lwrist -1.16115
lhand -25.6667 -4.6249
lfingers 7.12502
lthumb 0.867626 25.3531
rfemur -11.4862 -3.30785 20.2217
rtibia 20.0807
rfoot -14.2716 -3.90275
rtoes 13.6854
lfemur -10.3814 8.76683 -19.6977
ltibia 17.1237
lfoot -11.7587 3.52644
ltoes 2.79838
173
root 0.598899 17.5923 -13.7668 6.72122 -0.534551 -1.17711
lowerback -3.18327 -0.692746 -0.356788
upperback 1.48189 -0.964513 1.78576
thorax 3.34674 -0.509066 1.9805
lowerneck -13.6281 0.469722 -1.8506
upperneck 14.1512 1.02081 -0.00628485
head 6.54255 0.391169 0.397896
rclavicle -4.02539e-015 9.14409e-015
rhumerus -27.3506 -18.7522 -77.9675
rradius 22.7102
rwrist 34.5243
rhand -19.3455 -26.8669
rfingers 7.12502
rthumb 6.97162 -56.7321
lclavicle -4.02539e-015 9.14409e-015
lhumerus -22.9843 5.82728 86.0374
lradius 14.5308
lwrist -1.18731
lhand -25.6694 -4.6317
lfingers 7.12502
lthumb 0.865072 25.3463
rfemur -11.4818 -3.30805 20.219
rtibia 20.0863
rfoot -14.2725 -3.89909
rtoes 13.6795
lfemur -10.3747 8.76215 -19.699
ltibia 17.1279
lfoot -11.7606 3.53592
ltoes 2.80867
174
root 0.599486 17.5922 -13.7672 6.7138 -0.540569 -1.17954
lowerback -3.18077 -0.691198 -0.34749
upperback 1.48616 -0.962869 1.7843
thorax 3.34948 -0.508062 1.97388
lowerneck -13.6238 0.470953 -1.84781
upperneck 14.1699 1.02296 -0.0122223
head 6.54784 0.391691 0.395793
rclavicle -4.96962e-015 -2.38542e-015
rhumerus -27.3442 -18.7601 -77.9679
rradius 22.7028
rwrist 34.5308
rhand -19.3398 -26.8566
rfingers 7.12502
rthumb 6.9771 -56.7216
lclavicle -4.96962e-015 -2.38542e-015
lhumerus -22.986 5.85474 86.027
lradius 14.5193
lwrist -1.20974
lhand -25.6686 -4.64378
lfingers 7.12502
lthumb 0.865832 25.3342
rfemur -11.4785 -3.30637 20.2194
rtibia 20.092
rfoot -14.2724 -3.89678
rtoes 13.669
lfemur -10.3704 8.75902 -19.6977
ltibia 17.1339
lfoot -11.7621 3.54476
ltoes 2.81512
